<svg xmlns="http://www.w3.org/2000/svg" xmlns:xlink="http://www.w3.org/1999/xlink" version="1.1" width="256" height="256" viewBox="0 0 256 256" xml:space="preserve">

<defs>
</defs>
<g style="stroke: none; stroke-width: 0; stroke-dasharray: none; stroke-linecap: butt; stroke-linejoin: miter; stroke-miterlimit: 10; fill: none; fill-rule: nonzero; opacity: 1;" transform="translate(1.4065934065934016 1.4065934065934016) scale(2.81 2.81)" >
	<path d="M 56.774 85.677 H 33.226 V 75.178 c 0 -4.776 3.872 -8.648 8.648 -8.648 h 6.253 c 4.776 0 8.648 3.872 8.648 8.648 V 85.677 z" style="stroke: none; stroke-width: 1; stroke-dasharray: none; stroke-linecap: butt; stroke-linejoin: miter; stroke-miterlimit: 10; fill: rgb(19,191,109); fill-rule: nonzero; opacity: 1;" transform=" matrix(1 0 0 1 0 0) " stroke-linecap="round" />
	<path d="M 45 44.339 L 45 44.339 c -3.826 0 -6.927 3.101 -6.927 6.927 V 54.2 c 0 3.826 3.101 6.927 6.927 6.927 h 0 c 3.826 0 6.927 -3.101 6.927 -6.927 v -2.934 C 51.927 47.44 48.826 44.339 45 44.339 z" style="stroke: none; stroke-width: 1; stroke-dasharray: none; stroke-linecap: butt; stroke-linejoin: miter; stroke-miterlimit: 10; fill: rgb(255,182,159); fill-rule: nonzero; opacity: 1;" transform=" matrix(1 0 0 1 0 0) " stroke-linecap="round" />
	<path d="M 56.774 86.677 H 33.226 c -0.552 0 -1 -0.447 -1 -1 V 75.178 c 0 -5.319 4.328 -9.647 9.647 -9.647 h 6.252 c 5.32 0 9.648 4.328 9.648 9.647 v 10.499 C 57.774 86.229 57.327 86.677 56.774 86.677 z M 34.226 84.677 h 21.548 v -9.499 c 0 -4.217 -3.431 -7.647 -7.648 -7.647 h -6.252 c -4.217 0 -7.647 3.431 -7.647 7.647 V 84.677 z" style="stroke: none; stroke-width: 1; stroke-dasharray: none; stroke-linecap: butt; stroke-linejoin: miter; stroke-miterlimit: 10; fill: rgb(0,0,0); fill-rule: nonzero; opacity: 1;" transform=" matrix(1 0 0 1 0 0) " stroke-linecap="round" />
	<path d="M 45 62.127 c -4.371 0 -7.927 -3.556 -7.927 -7.927 v -2.934 c 0 -4.371 3.556 -7.927 7.927 -7.927 s 7.927 3.556 7.927 7.927 V 54.2 C 52.927 58.571 49.371 62.127 45 62.127 z M 45 45.339 c -3.268 0 -5.927 2.659 -5.927 5.927 V 54.2 c 0 3.268 2.659 5.927 5.927 5.927 c 3.268 0 5.927 -2.659 5.927 -5.927 v -2.934 C 50.927 47.998 48.268 45.339 45 45.339 z" style="stroke: none; stroke-width: 1; stroke-dasharray: none; stroke-linecap: butt; stroke-linejoin: miter; stroke-miterlimit: 10; fill: rgb(0,0,0); fill-rule: nonzero; opacity: 1;" transform=" matrix(1 0 0 1 0 0) " stroke-linecap="round" />
	<path d="M 89 67.07 H 65.452 V 56.571 c 0 -4.776 3.872 -8.648 8.648 -8.648 h 6.253 c 4.776 0 8.648 3.872 8.648 8.648 V 67.07 z" style="stroke: none; stroke-width: 1; stroke-dasharray: none; stroke-linecap: butt; stroke-linejoin: miter; stroke-miterlimit: 10; fill: rgb(114,194,233); fill-rule: nonzero; opacity: 1;" transform=" matrix(1 0 0 1 0 0) " stroke-linecap="round" />
	<path d="M 77.226 25.733 L 77.226 25.733 c -3.826 0 -6.927 3.101 -6.927 6.927 v 2.934 c 0 3.826 3.101 6.927 6.927 6.927 h 0 c 3.826 0 6.927 -3.101 6.927 -6.927 V 32.66 C 84.153 28.834 81.052 25.733 77.226 25.733 z" style="stroke: none; stroke-width: 1; stroke-dasharray: none; stroke-linecap: butt; stroke-linejoin: miter; stroke-miterlimit: 10; fill: rgb(255,182,159); fill-rule: nonzero; opacity: 1;" transform=" matrix(1 0 0 1 0 0) " stroke-linecap="round" />
	<path d="M 89 68.07 H 65.452 c -0.553 0 -1 -0.447 -1 -1 V 56.571 c 0 -5.319 4.328 -9.647 9.647 -9.647 h 6.253 c 5.319 0 9.647 4.328 9.647 9.647 V 67.07 C 90 67.623 89.553 68.07 89 68.07 z M 66.452 66.07 H 88 v -9.499 c 0 -4.217 -3.431 -7.647 -7.647 -7.647 H 74.1 c -4.217 0 -7.647 3.431 -7.647 7.647 V 66.07 z" style="stroke: none; stroke-width: 1; stroke-dasharray: none; stroke-linecap: butt; stroke-linejoin: miter; stroke-miterlimit: 10; fill: rgb(0,0,0); fill-rule: nonzero; opacity: 1;" transform=" matrix(1 0 0 1 0 0) " stroke-linecap="round" />
	<path d="M 77.226 43.521 c -4.371 0 -7.927 -3.556 -7.927 -7.927 V 32.66 c 0 -4.371 3.556 -7.927 7.927 -7.927 s 7.928 3.556 7.928 7.927 v 2.934 C 85.153 39.964 81.597 43.521 77.226 43.521 z M 77.226 26.733 c -3.268 0 -5.927 2.659 -5.927 5.927 v 2.934 c 0 3.268 2.659 5.927 5.927 5.927 c 3.269 0 5.928 -2.659 5.928 -5.927 V 32.66 C 83.153 29.392 80.494 26.733 77.226 26.733 z" style="stroke: none; stroke-width: 1; stroke-dasharray: none; stroke-linecap: butt; stroke-linejoin: miter; stroke-miterlimit: 10; fill: rgb(0,0,0); fill-rule: nonzero; opacity: 1;" transform=" matrix(1 0 0 1 0 0) " stroke-linecap="round" />
	<path d="M 24.548 67.07 H 1 V 56.571 c 0 -4.776 3.872 -8.648 8.648 -8.648 h 6.253 c 4.776 0 8.648 3.872 8.648 8.648 V 67.07 z" style="stroke: none; stroke-width: 1; stroke-dasharray: none; stroke-linecap: butt; stroke-linejoin: miter; stroke-miterlimit: 10; fill: rgb(252,93,61); fill-rule: nonzero; opacity: 1;" transform=" matrix(1 0 0 1 0 0) " stroke-linecap="round" />
	<path d="M 12.774 25.733 L 12.774 25.733 c -3.826 0 -6.927 3.101 -6.927 6.927 v 2.934 c 0 3.826 3.101 6.927 6.927 6.927 h 0 c 3.826 0 6.927 -3.101 6.927 -6.927 V 32.66 C 19.701 28.834 16.6 25.733 12.774 25.733 z" style="stroke: none; stroke-width: 1; stroke-dasharray: none; stroke-linecap: butt; stroke-linejoin: miter; stroke-miterlimit: 10; fill: rgb(255,182,159); fill-rule: nonzero; opacity: 1;" transform=" matrix(1 0 0 1 0 0) " stroke-linecap="round" />
	<path d="M 24.548 68.07 H 1 c -0.552 0 -1 -0.447 -1 -1 V 56.571 c 0 -5.319 4.328 -9.647 9.647 -9.647 H 15.9 c 5.32 0 9.648 4.328 9.648 9.647 V 67.07 C 25.548 67.623 25.101 68.07 24.548 68.07 z M 2 66.07 h 21.548 v -9.499 c 0 -4.217 -3.431 -7.647 -7.648 -7.647 H 9.647 C 5.431 48.924 2 52.354 2 56.571 V 66.07 z" style="stroke: none; stroke-width: 1; stroke-dasharray: none; stroke-linecap: butt; stroke-linejoin: miter; stroke-miterlimit: 10; fill: rgb(0,0,0); fill-rule: nonzero; opacity: 1;" transform=" matrix(1 0 0 1 0 0) " stroke-linecap="round" />
	<path d="M 12.774 43.521 c -4.371 0 -7.927 -3.556 -7.927 -7.927 V 32.66 c 0 -4.371 3.556 -7.927 7.927 -7.927 c 4.371 0 7.927 3.556 7.927 7.927 v 2.934 C 20.701 39.964 17.145 43.521 12.774 43.521 z M 12.774 26.733 c -3.268 0 -5.927 2.659 -5.927 5.927 v 2.934 c 0 3.268 2.659 5.927 5.927 5.927 s 5.927 -2.659 5.927 -5.927 V 32.66 C 18.701 29.392 16.042 26.733 12.774 26.733 z" style="stroke: none; stroke-width: 1; stroke-dasharray: none; stroke-linecap: butt; stroke-linejoin: miter; stroke-miterlimit: 10; fill: rgb(0,0,0); fill-rule: nonzero; opacity: 1;" transform=" matrix(1 0 0 1 0 0) " stroke-linecap="round" />
	<rect x="25.88" y="11.57" rx="0" ry="0" width="38.24" height="22.56" style="stroke: none; stroke-width: 1; stroke-dasharray: none; stroke-linecap: butt; stroke-linejoin: miter; stroke-miterlimit: 10; fill: rgb(196,149,32); fill-rule: nonzero; opacity: 1;" transform=" matrix(1 0 0 1 0 0) "/>
	<path d="M 64.12 35.126 H 25.88 c -0.552 0 -1 -0.448 -1 -1 V 11.571 c 0 -0.552 0.448 -1 1 -1 h 38.24 c 0.553 0 1 0.448 1 1 v 22.556 C 65.12 34.679 64.673 35.126 64.12 35.126 z M 26.88 33.126 h 36.24 V 12.571 H 26.88 V 33.126 z" style="stroke: none; stroke-width: 1; stroke-dasharray: none; stroke-linecap: butt; stroke-linejoin: miter; stroke-miterlimit: 10; fill: rgb(0,0,0); fill-rule: nonzero; opacity: 1;" transform=" matrix(1 0 0 1 0 0) " stroke-linecap="round" />
	<path d="M 45 34.127 c -5.024 -4.325 -10.048 -6.268 -15.072 -5.829 V 4.401 C 35.119 3.914 40.155 5.682 45 10.23 V 34.127 z" style="stroke: none; stroke-width: 1; stroke-dasharray: none; stroke-linecap: butt; stroke-linejoin: miter; stroke-miterlimit: 10; fill: rgb(221,167,34); fill-rule: nonzero; opacity: 1;" transform=" matrix(1 0 0 1 0 0) " stroke-linecap="round" />
	<path d="M 45 34.127 c 5.024 -4.325 10.048 -6.268 15.072 -5.829 V 4.401 C 54.881 3.914 49.845 5.682 45 10.23 V 34.127 z" style="stroke: none; stroke-width: 1; stroke-dasharray: none; stroke-linecap: butt; stroke-linejoin: miter; stroke-miterlimit: 10; fill: rgb(242,191,34); fill-rule: nonzero; opacity: 1;" transform=" matrix(1 0 0 1 0 0) " stroke-linecap="round" />
	<path d="M 45 35.126 c -0.235 0 -0.467 -0.083 -0.652 -0.242 c -4.789 -4.123 -9.608 -6 -14.333 -5.59 c -0.28 0.021 -0.556 -0.07 -0.763 -0.259 c -0.207 -0.189 -0.324 -0.457 -0.324 -0.737 V 4.401 c 0 -0.516 0.393 -0.947 0.907 -0.996 c 5.647 -0.526 10.978 1.521 15.85 6.095 C 45.886 9.69 46 9.954 46 10.23 v 23.896 c 0 0.391 -0.228 0.746 -0.583 0.909 C 45.284 35.097 45.142 35.126 45 35.126 z M 31.304 27.238 c 4.24 0 8.498 1.607 12.696 4.793 V 10.667 c -4.135 -3.771 -8.42 -5.519 -13.072 -5.331 v 21.906 C 31.053 27.239 31.179 27.238 31.304 27.238 z" style="stroke: none; stroke-width: 1; stroke-dasharray: none; stroke-linecap: butt; stroke-linejoin: miter; stroke-miterlimit: 10; fill: rgb(0,0,0); fill-rule: nonzero; opacity: 1;" transform=" matrix(1 0 0 1 0 0) " stroke-linecap="round" />
	<path d="M 45 35.126 c -0.142 0 -0.284 -0.03 -0.417 -0.091 C 44.228 34.873 44 34.518 44 34.126 V 10.23 c 0 -0.276 0.114 -0.54 0.315 -0.729 c 4.873 -4.574 10.205 -6.623 15.851 -6.095 c 0.514 0.048 0.906 0.479 0.906 0.996 v 23.896 c 0 0.28 -0.118 0.548 -0.324 0.737 c -0.207 0.19 -0.481 0.287 -0.763 0.259 c -4.725 -0.414 -9.544 1.468 -14.333 5.59 C 45.467 35.043 45.235 35.126 45 35.126 z M 46 10.667 v 21.364 c 4.322 -3.279 8.722 -4.882 13.072 -4.789 V 5.336 C 54.435 5.146 50.134 6.896 46 10.667 z" style="stroke: none; stroke-width: 1; stroke-dasharray: none; stroke-linecap: butt; stroke-linejoin: miter; stroke-miterlimit: 10; fill: rgb(0,0,0); fill-rule: nonzero; opacity: 1;" transform=" matrix(1 0 0 1 0 0) " stroke-linecap="round" />
	<path d="M 48.382 25.136 c -0.28 0 -0.561 -0.118 -0.758 -0.348 c -0.36 -0.418 -0.313 -1.05 0.105 -1.41 c 2.969 -2.555 6.014 -3.72 9.049 -3.452 c 0.551 0.048 0.957 0.533 0.909 1.083 c -0.047 0.55 -0.538 0.965 -1.083 0.909 c -2.482 -0.213 -5.025 0.785 -7.57 2.975 C 48.846 25.056 48.613 25.136 48.382 25.136 z" style="stroke: none; stroke-width: 1; stroke-dasharray: none; stroke-linecap: butt; stroke-linejoin: miter; stroke-miterlimit: 10; fill: rgb(0,0,0); fill-rule: nonzero; opacity: 1;" transform=" matrix(1 0 0 1 0 0) " stroke-linecap="round" />
	<path d="M 48.382 17.235 c -0.28 0 -0.56 -0.118 -0.758 -0.348 c -0.36 -0.418 -0.313 -1.05 0.105 -1.41 c 2.969 -2.556 6.021 -3.717 9.049 -3.452 c 0.551 0.048 0.957 0.533 0.909 1.083 c -0.047 0.55 -0.538 0.962 -1.083 0.909 c -2.482 -0.216 -5.026 0.784 -7.57 2.975 C 48.846 17.155 48.613 17.235 48.382 17.235 z" style="stroke: none; stroke-width: 1; stroke-dasharray: none; stroke-linecap: butt; stroke-linejoin: miter; stroke-miterlimit: 10; fill: rgb(0,0,0); fill-rule: nonzero; opacity: 1;" transform=" matrix(1 0 0 1 0 0) " stroke-linecap="round" />
	<path d="M 41.918 25.136 c -0.231 0 -0.463 -0.08 -0.652 -0.242 c -2.545 -2.191 -5.091 -3.189 -7.57 -2.975 c -0.547 0.06 -1.035 -0.359 -1.083 -0.909 c -0.048 -0.55 0.359 -1.035 0.909 -1.083 c 3.034 -0.269 6.08 0.896 9.049 3.452 c 0.418 0.36 0.466 0.992 0.105 1.41 C 42.479 25.018 42.199 25.136 41.918 25.136 z" style="stroke: none; stroke-width: 1; stroke-dasharray: none; stroke-linecap: butt; stroke-linejoin: miter; stroke-miterlimit: 10; fill: rgb(0,0,0); fill-rule: nonzero; opacity: 1;" transform=" matrix(1 0 0 1 0 0) " stroke-linecap="round" />
	<path d="M 41.918 17.235 c -0.231 0 -0.463 -0.08 -0.652 -0.242 c -2.544 -2.19 -5.084 -3.189 -7.57 -2.975 c -0.547 0.051 -1.035 -0.359 -1.083 -0.909 c -0.048 -0.55 0.359 -1.035 0.909 -1.083 c 3.033 -0.266 6.081 0.896 9.049 3.452 c 0.418 0.36 0.466 0.992 0.105 1.41 C 42.479 17.117 42.199 17.235 41.918 17.235 z" style="stroke: none; stroke-width: 1; stroke-dasharray: none; stroke-linecap: butt; stroke-linejoin: miter; stroke-miterlimit: 10; fill: rgb(0,0,0); fill-rule: nonzero; opacity: 1;" transform=" matrix(1 0 0 1 0 0) " stroke-linecap="round" />
</g>
</svg>